<svg width="24" height="24" viewBox="0 0 24 24" fill="none" xmlns="http://www.w3.org/2000/svg"><path d="M21.4403 11.1569l-9.19 9.19c-1.1259 1.1258-2.65283 1.7583-4.24501 1.7583-1.59218.0-3.11916-.6325-4.245-1.7583-1.12584-1.1259-1.75834-2.6529-1.75834-4.245.0-1.5922.6325-3.1192 1.75834-4.245L12.9503 2.66685c.7506-.75056 1.7685-1.17222 2.83-1.17222 1.0614.0 2.0794.42166 2.83 1.17222C19.3609 3.41742 19.7825 4.4354 19.7825 5.49685c0 1.06146-.421599999999998 2.07944-1.1722 2.83L9.41029 17.5169C9.03501 17.8921 8.52602 18.103 7.99529 18.103 7.46456 18.103 6.95557 17.8921 6.58029 17.5169 6.20501 17.1416 5.99418 16.6326 5.99418 16.1019c0-.530800000000001.21083-1.0398.58611-1.415L15.0703 6.20685" stroke="#000" stroke-width="1.5" stroke-linecap="round" stroke-linejoin="round"/></svg>